# xmcd
#
# Track frame offsets: 
#        150
#        12458
#        33400
#        51568
#        72793
#        87510
#        99913
#        117688
#        143153
#        162640
#        183023
#        194650
#        211865
#        229403
#        250703
#        270053
#
# Disc length: 3881 seconds
#
# Revision: 5
# Processed by: cddbd v1.5.2PL0 Copyright (c) Steve Scherf et al.
# Submitted via: ExactAudioCopyFreeDBPlugin 1.0
#
DISCID=e40f2710
DTITLE=Above The Law - Legends
DYEAR=1998
DGENRE=Rap
TTITLE0=Intro "Floetry"
TTITLE1=X.O. Wit Me Feat. Jayo Felony
TTITLE2=Set Trippin'
TTITLE3=Promise Me
TTITLE4=Be About Yo Bizniz Feat. Ha-Ha L.O.C.
TTITLE5=Clinic Niggaz Feat. Young Ten
TTITLE6=Soliciting
TTITLE7=Deep Az The Root
TTITLE8=The Streets
TTITLE9=Sumner Days
TTITLE10=L.A. Vibe
TTITLE11=Worldwide
TTITLE12=Karma
TTITLE13=Soul Searching Feat. Yukmouth
TTITLE14=Adventures Of...
TTITLE15=In God We Trust (Bonus Track) Feat. Big Rock
EXTD=
EXTT0=
EXTT1=
EXTT2=
EXTT3=
EXTT4=
EXTT5=
EXTT6=
EXTT7=
EXTT8=
EXTT9=
EXTT10=
EXTT11=
EXTT12=
EXTT13=
EXTT14=
EXTT15=
PLAYORDER=
